<svg version="1.1" id="Layer_1" xmlns="http://www.w3.org/2000/svg" xmlns:xlink="http://www.w3.org/1999/xlink" x="0px" y="0px"
	 width="100%" viewBox="0 0 128 128" enable-background="new 0 0 128 128" xml:space="preserve">
<path fill="#FEFEFE" opacity="1.000000" stroke="none" 
	d="
M129.000000,60.000004 
	C129.000000,82.980263 129.000000,105.960518 129.000000,128.970398 
	C86.389709,128.970398 43.779400,128.970398 1.084543,128.970398 
	C1.084543,86.426468 1.084543,43.852707 1.084543,1.139475 
	C43.666374,1.139475 86.333115,1.139475 129.000000,1.139475 
	C129.000000,19.761400 129.000000,38.412041 128.746094,57.360081 
	C127.427200,57.220955 126.362213,56.784431 124.940514,56.201691 
	C125.507309,55.025990 126.233902,53.518795 127.037262,51.852379 
	C125.841881,51.425888 124.924049,51.098415 125.256386,51.216991 
	C124.868881,48.356964 125.014816,46.376583 124.284599,44.802700 
	C123.327713,42.740280 120.924286,41.167976 120.458374,39.089954 
	C118.383858,29.837181 110.698936,24.352749 104.706230,18.834772 
	C99.179535,13.745897 91.556999,8.962740 82.907120,8.271825 
	C80.723892,8.097438 78.596489,7.185825 76.414711,7.038596 
	C70.361603,6.630124 63.782249,4.820010 58.343311,6.529873 
	C48.649845,9.577245 39.101631,13.939158 30.471197,19.320627 
	C16.664637,27.929651 10.022710,42.062824 5.558868,57.132767 
	C4.883769,59.411892 6.471325,62.361229 6.957911,65.305038 
	C6.865016,66.019318 6.826485,66.429123 6.399427,66.784698 
	C5.313080,67.216530 3.962280,67.791245 4.014447,68.175468 
	C4.938533,74.981522 6.033357,81.764389 7.245722,88.871635 
	C8.040169,90.170982 8.680211,91.150955 9.087963,92.106461 
	C8.994696,92.086845 9.133718,92.091698 9.430351,92.126678 
	C9.587963,92.156799 9.771266,92.420227 9.598339,92.775696 
	C10.989029,96.397774 12.552646,99.664383 14.215916,103.247620 
	C16.744932,106.060036 18.930004,108.872314 21.659531,110.979263 
	C26.018253,114.343803 29.897364,118.765381 36.112259,119.234619 
	C36.372456,119.747169 36.635174,119.902138 37.233372,119.932007 
	C37.659973,119.960419 37.829987,119.980209 38.080475,120.236115 
	C38.355114,120.775490 38.631718,120.940933 39.222778,120.975754 
	C39.454784,120.982964 39.915829,121.037277 39.980946,121.401245 
	C40.990173,122.361290 41.860798,123.181870 42.889774,123.518669 
	C53.039150,126.840706 63.414276,127.269699 73.781784,125.036240 
	C80.672256,123.551819 87.958450,122.396004 94.076653,119.197655 
	C102.702866,114.688210 111.296890,109.434761 116.512978,100.135406 
	C117.893959,97.669044 118.921127,95.291023 120.094299,92.601028 
	C120.854813,90.875565 121.469322,89.462082 122.046234,88.059082 
	C122.008644,88.069572 122.083084,88.093056 122.451218,88.049896 
	C123.244453,87.357712 123.669548,86.708679 124.065628,86.026901 
	C124.036598,85.994164 124.057777,86.079071 124.457886,85.991318 
	C124.929047,85.092857 125.000099,84.282143 125.037216,83.486504 
	C125.003288,83.501572 125.034470,83.568954 125.377869,83.397003 
	C125.816673,82.484016 125.912086,81.742981 126.242081,80.733063 
	C126.661392,78.546326 126.846107,76.628487 127.046768,74.344887 
	C126.448883,72.643044 125.835060,71.306953 125.104950,69.658585 
	C124.778481,68.566750 124.568298,67.787193 124.708420,66.891739 
	C125.375305,65.427452 125.422722,63.923828 126.085335,62.775051 
	C126.728233,61.660465 128.002823,60.910244 129.000000,60.000004 
z"/>
<path fill="#F7F8ED" opacity="1.000000" stroke="none" 
	d="
M129.000000,59.666672 
	C128.002823,60.910244 126.728233,61.660465 126.085335,62.775051 
	C125.422722,63.923828 125.375305,65.427452 124.522659,66.567345 
	C122.667450,63.201950 121.348289,60.045040 120.062561,56.512619 
	C122.754501,50.415237 118.615936,45.754486 116.679619,41.396484 
	C114.277153,35.989311 109.258270,31.744646 105.065987,26.825768 
	C98.566872,20.619602 91.620209,15.867864 82.781609,13.713490 
	C81.691338,13.353925 80.848373,13.204932 79.614555,12.929159 
	C77.153008,12.519119 75.082314,12.235862 72.632805,11.820610 
	C68.502274,11.790543 64.750557,11.892469 60.608280,11.948441 
	C58.477543,12.278723 56.737354,12.654960 54.620522,12.994021 
	C52.492561,13.647354 50.741249,14.337863 48.797901,15.283806 
	C47.719963,16.061590 46.834064,16.583939 45.573128,16.949825 
	C44.583286,16.826338 43.875496,16.670151 43.367287,16.919970 
	C30.794613,23.100300 20.917395,32.013000 14.873806,45.279037 
	C14.070164,47.357594 13.484295,49.153172 12.720408,51.309814 
	C12.578603,51.936794 12.614814,52.202717 12.674086,52.445229 
	C12.697146,52.421825 12.658337,52.368793 12.391910,52.662289 
	C12.041989,55.954506 11.958495,58.953228 11.549644,62.072891 
	C9.820283,63.129410 8.416279,64.064980 7.012274,65.000557 
	C6.471325,62.361229 4.883769,59.411892 5.558868,57.132767 
	C10.022710,42.062824 16.664637,27.929651 30.471197,19.320627 
	C39.101631,13.939158 48.649845,9.577245 58.343311,6.529873 
	C63.782249,4.820010 70.361603,6.630124 76.414711,7.038596 
	C78.596489,7.185825 80.723892,8.097438 82.907120,8.271825 
	C91.556999,8.962740 99.179535,13.745897 104.706230,18.834772 
	C110.698936,24.352749 118.383858,29.837181 120.458374,39.089954 
	C120.924286,41.167976 123.327713,42.740280 124.284599,44.802700 
	C125.014816,46.376583 124.868881,48.356964 125.256386,51.216991 
	C124.924049,51.098415 125.841881,51.425888 127.037262,51.852379 
	C126.233902,53.518795 125.507309,55.025990 124.940514,56.201691 
	C126.362213,56.784431 127.427200,57.220955 128.746094,57.828739 
	C129.000000,58.444447 129.000000,58.888889 129.000000,59.666672 
z"/>
<path fill="#283F48" opacity="1.000000" stroke="none" 
	d="
M120.029137,56.888126 
	C121.348289,60.045040 122.667450,63.201950 124.172363,66.683258 
	C124.568298,67.787193 124.778481,68.566750 125.022285,70.050919 
	C124.625038,73.088966 124.194168,75.422386 123.561157,78.113632 
	C123.243065,80.979240 123.127129,83.487030 122.733948,86.004669 
	C122.332169,86.707359 122.207619,87.400208 122.083084,88.093056 
	C122.083084,88.093056 122.008644,88.069572 121.661919,88.038635 
	C120.529221,86.969032 119.743248,85.930367 118.975372,84.486481 
	C119.762680,78.482674 120.531891,72.884071 121.301102,67.285477 
	C120.477486,67.053825 119.653870,66.822182 118.830261,66.590538 
	C116.848839,71.703682 115.822731,77.548439 112.622017,81.727806 
	C109.304855,86.059242 104.065239,89.063736 99.325333,92.119461 
	C94.565491,95.188034 85.858932,95.168037 83.841553,92.431862 
	C87.928719,89.512352 92.162964,86.776596 96.010162,83.575668 
	C97.276505,82.522057 98.209053,80.186523 98.021332,78.586525 
	C97.903107,77.578995 95.421539,76.848770 94.002556,75.641762 
	C94.340904,73.944023 94.676872,72.598663 95.362640,71.185143 
	C97.150772,71.721405 98.589096,72.325836 100.046883,73.272171 
	C101.044868,75.076958 102.023392,76.539825 103.274612,78.116020 
	C104.279114,78.489815 105.010941,78.750282 105.847183,79.397774 
	C106.992493,79.918365 108.792160,80.446854 108.959312,80.125687 
	C111.122009,75.970245 113.052460,71.693924 115.253441,66.995872 
	C109.515465,66.029175 109.118263,69.474457 107.560150,71.958740 
	C106.356117,71.570114 105.497917,71.217667 104.771774,70.559914 
	C105.187370,69.207298 105.470894,68.159988 106.050636,66.991371 
	C106.898010,66.246407 107.449158,65.622742 107.987946,64.719704 
	C107.958244,64.254700 107.940887,64.069077 107.964233,63.920132 
	C108.004936,63.956814 107.902458,63.917995 108.182724,63.944683 
	C108.957756,63.757999 109.452530,63.544632 110.236465,63.226181 
	C111.046318,62.415565 111.567001,61.710030 112.422379,61.044807 
	C114.436111,61.885529 116.115143,62.685944 117.901283,63.537415 
	C117.478897,60.588165 117.232773,58.869667 117.359451,57.059772 
	C118.497887,56.941624 119.263512,56.914875 120.029137,56.888126 
M102.316048,84.065086 
	C101.211151,84.957458 100.106262,85.849831 99.001366,86.742203 
	C99.469574,87.141968 99.937775,87.541725 100.405983,87.941490 
	C101.269852,86.633720 102.133728,85.325951 103.659363,83.897797 
	C103.962936,83.205986 104.266510,82.514183 104.570084,81.822380 
	C104.206795,81.694153 103.843498,81.565926 103.480209,81.437698 
	C103.314255,82.292831 103.148308,83.147964 102.316048,84.065086 
z"/>
<path fill="#E6E1D1" opacity="1.000000" stroke="none" 
	d="
M38.000000,120.000000 
	C37.829987,119.980209 37.659973,119.960419 37.129776,119.731651 
	C36.579609,119.273834 36.335045,119.103195 36.035892,119.010750 
	C29.897364,118.765381 26.018253,114.343803 21.659531,110.979263 
	C18.930004,108.872314 16.744932,106.060036 14.571116,103.268112 
	C16.641211,104.233620 18.390291,105.604958 20.283564,106.734634 
	C24.571329,109.293076 28.369772,113.228180 34.449860,112.029121 
	C37.057823,113.302544 39.292614,114.575935 41.644089,115.574562 
	C41.957188,115.707535 42.862251,114.446617 43.883453,113.975601 
	C46.787571,115.196381 49.250484,115.977333 51.383232,113.110199 
	C53.120239,113.509384 54.531113,113.749123 56.041924,114.388626 
	C55.852844,117.644325 56.420509,119.714516 60.428463,119.043457 
	C61.950802,119.009995 63.058342,118.942818 64.519814,118.945084 
	C65.659248,118.669304 66.444756,118.324074 67.584915,117.970261 
	C71.286385,115.983955 74.633179,114.006241 78.162849,112.281395 
	C78.934380,112.709114 79.523041,112.883972 80.052849,113.434212 
	C80.658836,119.972443 84.045464,114.565414 86.003769,115.673317 
	C85.044724,117.740631 84.397537,120.421524 83.079964,120.806190 
	C73.414047,123.628189 63.596596,125.321564 53.461651,123.125168 
	C49.004868,122.159309 44.434582,121.717194 39.915829,121.037277 
	C39.915829,121.037277 39.454784,120.982964 39.114578,120.762657 
	C38.574982,120.277740 38.316856,120.096954 38.000000,120.000000 
z"/>
<path fill="#E5E2D2" opacity="1.000000" stroke="none" 
	d="
M39.980946,121.401245 
	C44.434582,121.717194 49.004868,122.159309 53.461651,123.125168 
	C63.596596,125.321564 73.414047,123.628189 83.079964,120.806190 
	C84.397537,120.421524 85.044724,117.740631 86.250641,115.502968 
	C91.220566,112.193642 95.942169,109.504250 101.053818,106.860489 
	C103.442444,105.960670 105.428253,104.987000 107.442604,104.076492 
	C110.337219,102.768120 113.252632,101.505753 116.159164,100.223740 
	C111.296890,109.434761 102.702866,114.688210 94.076653,119.197655 
	C87.958450,122.396004 80.672256,123.551819 73.781784,125.036240 
	C63.414276,127.269699 53.039150,126.840706 42.889774,123.518669 
	C41.860798,123.181870 40.990173,122.361290 39.980946,121.401245 
z"/>
<path fill="#2A424F" opacity="1.000000" stroke="none" 
	d="
M6.957911,65.305038 
	C8.416279,64.064980 9.820283,63.129410 11.849455,62.092831 
	C12.674613,62.003273 12.874606,62.014717 13.118883,62.375984 
	C14.442336,63.157604 15.721502,63.589409 16.999355,64.397957 
	C16.995804,65.528214 16.993570,66.281731 16.606785,67.017288 
	C15.278164,67.071945 14.334098,67.144554 12.585330,67.279045 
	C14.839551,72.470016 16.891253,77.194626 19.065857,82.240089 
	C20.703892,83.990036 22.144705,85.517067 23.794380,86.768837 
	C24.140755,87.031654 25.255289,86.282135 26.315941,86.157349 
	C27.735878,87.546974 28.855734,88.778351 29.978645,90.380341 
	C29.988504,91.492157 29.995310,92.233360 29.653229,93.140564 
	C28.543268,93.187363 27.782196,93.068153 26.832371,92.728859 
	C26.094696,92.340988 25.545778,92.173195 24.998430,92.002701 
	C25.000000,92.000000 24.994066,92.003677 24.879063,91.776451 
	C24.504572,91.331451 24.245089,91.113678 23.865923,90.691429 
	C23.526800,90.243713 23.256969,90.087479 22.756020,89.976089 
	C22.575291,89.933914 22.204515,89.916794 22.062340,89.656181 
	C21.267435,88.970863 20.614704,88.546150 19.787256,87.857635 
	C18.199610,86.356430 16.786680,85.119034 15.288913,83.545288 
	C14.854366,82.623932 14.504657,82.038918 14.149902,81.144730 
	C13.744518,79.891457 13.344178,78.947357 12.939783,77.627594 
	C12.319600,75.403877 11.973001,73.398895 11.013374,71.750862 
	C10.004818,70.018806 8.409389,68.628487 7.026323,66.996368 
	C6.982234,66.903915 6.787954,66.838921 6.787953,66.838921 
	C6.826485,66.429123 6.865016,66.019318 6.957911,65.305038 
z"/>
<path fill="#CBC6B8" opacity="1.000000" stroke="none" 
	d="
M34.113194,111.943138 
	C28.369772,113.228180 24.571329,109.293076 20.283564,106.734634 
	C18.390291,105.604958 16.641211,104.233620 14.471464,102.951492 
	C12.552646,99.664383 10.989029,96.397774 9.867126,92.956970 
	C11.758608,94.154099 13.208376,95.525398 14.793205,97.165352 
	C21.323242,102.270378 27.718218,107.106758 34.113194,111.943138 
z"/>
<path fill="#40555E" opacity="1.000000" stroke="none" 
	d="
M7.091315,88.552269 
	C6.033357,81.764389 4.938533,74.981522 4.014447,68.175468 
	C3.962280,67.791245 5.313080,67.216530 6.399427,66.784698 
	C6.787954,66.838921 6.982234,66.903915 7.083873,67.427711 
	C7.415730,70.984901 7.645950,74.018303 7.855164,77.424576 
	C7.972912,78.528908 8.111665,79.260361 8.200829,80.312599 
	C8.387140,81.442688 8.623043,82.251991 8.830572,83.347534 
	C9.047830,84.132286 9.293461,84.630798 9.583676,85.358620 
	C9.628261,85.587936 9.676937,86.052605 9.397043,86.105118 
	C8.441872,86.955841 7.766593,87.754051 7.091315,88.552269 
z"/>
<path fill="#2C3F45" opacity="1.000000" stroke="none" 
	d="
M118.957275,84.891708 
	C119.743248,85.930367 120.529221,86.969032 121.699509,88.028152 
	C121.469322,89.462082 120.854813,90.875565 119.720818,92.644363 
	C116.442024,94.657837 113.682724,96.316010 110.572395,97.975410 
	C109.475861,97.302849 108.730354,96.629059 108.126831,95.653244 
	C111.831635,91.864716 115.394455,88.378212 118.957275,84.891708 
z"/>
<path fill="#D9D3C0" opacity="1.000000" stroke="none" 
	d="
M110.923416,97.974167 
	C113.682724,96.316010 116.442024,94.657837 119.574806,92.956337 
	C118.921127,95.291023 117.893959,97.669044 116.512978,100.135406 
	C113.252632,101.505753 110.337219,102.768120 107.442604,104.076492 
	C105.428253,104.987000 103.442444,105.960670 101.246826,106.577255 
	C104.340981,103.490318 107.632202,100.732246 110.923416,97.974167 
z"/>
<path fill="#1C2F42" opacity="1.000000" stroke="none" 
	d="
M7.245720,88.871635 
	C7.766593,87.754051 8.441872,86.955841 9.597622,86.299995 
	C10.374187,86.657394 10.670280,86.872421 11.036956,87.357819 
	C11.652024,88.118576 12.196509,88.608955 12.814751,89.437927 
	C13.542907,90.323975 14.197307,90.871437 14.986515,91.702057 
	C15.962408,92.916199 16.803492,93.847183 17.170502,94.886215 
	C16.017000,95.628410 15.337573,96.262558 14.658145,96.896706 
	C13.208376,95.525398 11.758608,94.154099 10.040052,92.601509 
	C9.771266,92.420227 9.587963,92.156799 9.420673,92.162292 
	C9.253384,92.167778 9.320251,92.130936 9.320251,92.130936 
	C8.680211,91.150955 8.040169,90.170982 7.245720,88.871635 
z"/>
<path fill="#E7EAE7" opacity="1.000000" stroke="none" 
	d="
M123.763290,77.755806 
	C124.194168,75.422386 124.625038,73.088966 125.138580,70.363205 
	C125.835060,71.306953 126.448883,72.643044 126.787369,74.613091 
	C126.038788,77.169937 125.565529,79.092812 124.996559,81.230621 
	C124.900841,81.445557 124.752090,81.891983 124.496773,81.634628 
	C124.082069,80.170120 123.922684,78.962967 123.763290,77.755806 
z"/>
<path fill="#646968" opacity="1.000000" stroke="none" 
	d="
M125.092270,81.015686 
	C125.565529,79.092812 126.038788,77.169937 126.771431,74.978851 
	C126.846107,76.628487 126.661392,78.546326 126.013115,80.725754 
	C125.549561,80.987350 125.092270,81.015686 125.092270,81.015686 
z"/>
<path fill="#ACB6AB" opacity="1.000000" stroke="none" 
	d="
M123.561150,78.113632 
	C123.922684,78.962967 124.082069,80.170120 124.557762,82.055534 
	C124.927536,83.012169 124.981003,83.290558 125.034470,83.568954 
	C125.034470,83.568954 125.003288,83.501572 124.690170,83.670792 
	C124.270638,84.586372 124.164207,85.332718 124.057777,86.079071 
	C124.057777,86.079071 124.036598,85.994164 123.797729,85.960892 
	C123.376305,85.950012 123.193748,85.972412 123.011185,85.994820 
	C123.127129,83.487030 123.243065,80.979240 123.561150,78.113632 
z"/>
<path fill="#3F4242" opacity="1.000000" stroke="none" 
	d="
M122.733948,86.004669 
	C123.193748,85.972412 123.376305,85.950012 123.826759,85.993629 
	C123.669548,86.708679 123.244453,87.357712 122.451218,88.049896 
	C122.207619,87.400208 122.332169,86.707359 122.733948,86.004669 
z"/>
<path fill="#3F4242" opacity="1.000000" stroke="none" 
	d="
M124.457886,85.991318 
	C124.164207,85.332718 124.270638,84.586372 124.724106,83.655731 
	C125.000099,84.282143 124.929047,85.092857 124.457886,85.991318 
z"/>
<path fill="#525454" opacity="1.000000" stroke="none" 
	d="
M125.377869,83.397003 
	C124.981003,83.290558 124.927536,83.012169 124.813080,82.312881 
	C124.752090,81.891983 124.900841,81.445557 124.996552,81.230621 
	C125.092270,81.015686 125.549561,80.987350 125.778526,80.994652 
	C125.912086,81.742981 125.816673,82.484016 125.377869,83.397003 
z"/>
<path fill="#E5E2D2" opacity="1.000000" stroke="none" 
	d="
M38.080475,120.236115 
	C38.316856,120.096954 38.574982,120.277740 38.882572,120.755447 
	C38.631718,120.940933 38.355114,120.775490 38.080475,120.236115 
z"/>
<path fill="#E5E2D2" opacity="1.000000" stroke="none" 
	d="
M36.112259,119.234619 
	C36.335045,119.103195 36.579609,119.273834 36.873184,119.723022 
	C36.635174,119.902138 36.372456,119.747169 36.112259,119.234619 
z"/>
<path fill="#CBC6B8" opacity="1.000000" stroke="none" 
	d="
M9.087963,92.106461 
	C9.320251,92.130936 9.253384,92.167778 9.263062,92.132172 
	C9.133718,92.091698 8.994696,92.086845 9.087963,92.106461 
z"/>
<path fill="#465E68" opacity="1.000000" stroke="none" 
	d="
M73.011612,11.952603 
	C75.082314,12.235862 77.153008,12.519119 79.662842,13.253603 
	C81.077614,13.777907 82.053261,13.850985 83.028908,13.924062 
	C91.620209,15.867864 98.566872,20.619602 105.003242,27.238569 
	C103.869156,28.464806 102.494263,29.106163 101.119370,29.747520 
	C101.472473,30.000427 101.825584,30.253334 102.178688,30.506241 
	C100.676163,32.666992 99.173645,34.827744 97.385483,36.843964 
	C95.713905,35.334572 94.491455,33.706242 92.879341,32.705856 
	C91.945450,32.126335 90.384430,32.557438 88.960945,32.775085 
	C87.753792,33.708649 86.691322,34.400864 85.174911,35.067009 
	C83.819725,35.014065 82.918472,34.987194 81.876648,34.654541 
	C78.960167,30.920027 76.300430,27.385942 73.341591,24.123104 
	C72.382950,23.065966 70.640396,22.719700 69.012337,21.852968 
	C65.961136,23.818361 63.154015,25.979053 60.001488,28.000477 
	C57.747246,26.233374 55.838409,24.605541 54.026947,22.621712 
	C54.388721,20.589544 54.653126,18.913368 54.941757,16.816996 
	C54.976376,15.274930 54.986771,14.153064 54.997169,13.031197 
	C56.737354,12.654960 58.477543,12.278723 60.892876,12.245617 
	C65.382553,12.376699 69.197083,12.164651 73.011612,11.952603 
z"/>
<path fill="#FDFDFD" opacity="1.000000" stroke="none" 
	d="
M97.671120,36.988495 
	C99.173645,34.827744 100.676163,32.666992 102.178688,30.506241 
	C101.825584,30.253334 101.472473,30.000427 101.119370,29.747520 
	C102.494263,29.106163 103.869156,28.464806 105.306793,27.410645 
	C109.258270,31.744646 114.277153,35.989311 116.679619,41.396484 
	C118.615936,45.754486 122.754501,50.415237 120.062561,56.512619 
	C119.263512,56.914875 118.497887,56.941624 116.991455,56.985546 
	C114.569420,56.304890 112.888206,55.607063 111.069656,54.593895 
	C106.511932,48.515198 102.091522,42.751846 97.671120,36.988495 
z"/>
<path fill="#475E68" opacity="1.000000" stroke="none" 
	d="
M15.091578,44.996063 
	C20.917395,32.013000 30.794613,23.100300 43.367287,16.919970 
	C43.875496,16.670151 44.583286,16.826338 45.667885,17.290508 
	C47.644268,18.544485 49.150848,19.301315 50.874390,20.167135 
	C50.198261,21.486021 49.577190,22.697504 48.586910,23.999269 
	C46.273098,25.090744 44.328499,26.091936 42.026325,27.168941 
	C40.491169,27.830599 39.057613,28.161217 38.177605,29.043777 
	C32.532913,34.704853 27.003345,40.480923 21.451506,46.234215 
	C20.269688,47.458912 19.152025,48.745522 18.002956,49.600609 
	C17.990753,47.132660 18.439034,44.750107 15.091578,44.996063 
z"/>
<path fill="#2E424C" opacity="1.000000" stroke="none" 
	d="
M13.074598,62.026165 
	C12.874606,62.014717 12.674613,62.003273 12.174811,61.971886 
	C11.958495,58.953228 12.041989,55.954506 12.476814,53.089161 
	C13.091416,56.861797 15.804277,55.851112 18.320812,55.906422 
	C19.883860,55.686867 21.074554,55.480812 22.486685,55.609795 
	C32.227737,56.932079 33.537067,56.338234 36.148384,50.102863 
	C36.896786,51.486641 37.400185,52.727707 37.889698,54.409389 
	C39.029659,55.559910 40.188324,56.884453 41.336533,56.875454 
	C46.900372,56.831844 52.461403,56.430283 58.059502,56.465347 
	C58.728836,57.201897 59.362095,57.628658 59.982780,58.270645 
	C59.970203,58.485870 59.949821,58.916573 59.633999,58.976135 
	C58.881355,59.677425 58.444530,60.319149 57.708565,61.096947 
	C56.217014,62.103188 55.024609,62.973354 53.566765,64.001167 
	C52.909512,65.100311 52.517685,66.041801 51.739815,66.987549 
	C50.501740,67.441811 49.649700,67.891815 48.494164,68.093262 
	C46.127724,67.537766 44.064793,67.230835 41.995197,66.560516 
	C41.960129,65.713295 41.931717,65.229454 42.134758,64.455978 
	C44.141060,63.855179 45.915909,63.544022 47.690762,63.232864 
	C47.672886,62.883854 47.655014,62.534840 47.637142,62.185825 
	C46.098289,61.803982 44.559441,61.422142 42.734703,60.731178 
	C35.325119,60.283894 28.201529,60.097477 21.077591,60.083118 
	C20.374712,60.081699 19.669708,61.133945 18.545156,61.734474 
	C16.441280,61.856594 14.757939,61.941380 13.074598,62.026165 
z"/>
<path fill="#F9FAFA" opacity="1.000000" stroke="none" 
	d="
M48.956123,23.908987 
	C49.577190,22.697504 50.198261,21.486021 50.874390,20.167135 
	C49.150848,19.301315 47.644268,18.544485 46.042927,17.446972 
	C46.834064,16.583939 47.719963,16.061590 49.151199,15.370846 
	C51.436867,15.880698 53.177197,16.558945 54.917530,17.237194 
	C54.653126,18.913368 54.388721,20.589544 53.728386,22.778351 
	C52.222507,24.196793 51.112560,25.102600 49.888184,25.737625 
	C49.501213,24.947559 49.228668,24.428274 48.956123,23.908987 
z"/>
<path fill="#4E646D" opacity="1.000000" stroke="none" 
	d="
M17.948462,55.919918 
	C15.804277,55.851112 13.091416,56.861797 12.743240,52.795666 
	C12.658337,52.368793 12.697146,52.421825 12.851700,52.256798 
	C13.127149,51.978481 13.370630,51.817291 13.348240,51.759991 
	C13.236713,51.474571 13.055263,51.216469 12.898424,50.948753 
	C13.484295,49.153172 14.070164,47.357594 14.873806,45.279037 
	C18.439034,44.750107 17.990753,47.132660 17.863644,49.919548 
	C17.800274,52.400959 17.874367,54.160439 17.948462,55.919918 
z"/>
<path fill="#445660" opacity="1.000000" stroke="none" 
	d="
M72.632805,11.820610 
	C69.197083,12.164651 65.382553,12.376699 61.283424,12.291573 
	C64.750557,11.892469 68.502274,11.790543 72.632805,11.820610 
z"/>
<path fill="#445660" opacity="1.000000" stroke="none" 
	d="
M54.941757,16.816994 
	C53.177197,16.558945 51.436867,15.880698 49.343239,15.115411 
	C50.741249,14.337863 52.492561,13.647354 54.620522,12.994020 
	C54.986771,14.153064 54.976376,15.274930 54.941757,16.816994 
z"/>
<path fill="#445660" opacity="1.000000" stroke="none" 
	d="
M82.781609,13.713490 
	C82.053261,13.850985 81.077614,13.777907 80.053680,13.380384 
	C80.848373,13.204932 81.691338,13.353925 82.781609,13.713490 
z"/>
<path fill="#2E424C" opacity="1.000000" stroke="none" 
	d="
M12.720407,51.309814 
	C13.055263,51.216469 13.236713,51.474571 13.348240,51.759991 
	C13.370630,51.817291 13.127149,51.978481 12.828638,52.280205 
	C12.614814,52.202717 12.578603,51.936794 12.720407,51.309814 
z"/>
<path fill="#F7F7E9" opacity="1.000000" stroke="none" 
	d="
M118.975372,84.486488 
	C115.394455,88.378212 111.831635,91.864716 107.811928,95.781784 
	C104.281441,98.455025 101.207840,100.697685 97.798317,102.915161 
	C96.159912,102.552185 94.634743,101.610100 93.597565,101.992294 
	C90.726089,103.050446 87.913666,104.439659 85.349861,106.114365 
	C82.725342,107.828735 80.423210,110.036644 77.979973,112.028526 
	C74.633179,114.006241 71.286385,115.983955 67.508209,117.604301 
	C67.116669,116.503677 67.156494,115.760414 67.576370,114.906082 
	C68.146957,110.622078 68.337494,106.449135 68.491745,101.921646 
	C69.086235,99.348869 69.717018,97.130661 70.610222,94.664040 
	C74.568573,91.243614 78.264503,88.071594 82.289207,84.811806 
	C86.412041,81.814072 90.206100,78.904106 94.000168,75.994141 
	C95.421539,76.848770 97.903107,77.578995 98.021332,78.586525 
	C98.209053,80.186523 97.276505,82.522057 96.010162,83.575668 
	C92.162964,86.776596 87.928719,89.512352 83.841553,92.431862 
	C85.858932,95.168037 94.565491,95.188034 99.325333,92.119461 
	C104.065239,89.063736 109.304855,86.059242 112.622017,81.727806 
	C115.822731,77.548439 116.848839,71.703682 118.830261,66.590538 
	C119.653870,66.822182 120.477486,67.053825 121.301102,67.285477 
	C120.531891,72.884071 119.762680,78.482674 118.975372,84.486488 
z"/>
<path fill="#C8C3B7" opacity="1.000000" stroke="none" 
	d="
M100.027420,72.930260 
	C98.589096,72.325836 97.150772,71.721405 94.931961,71.129570 
	C92.138077,71.098351 90.124695,71.054535 87.720146,71.128502 
	C84.854683,71.472878 82.380371,71.699478 79.739304,71.555435 
	C76.119881,70.422829 72.667221,69.660873 69.214188,68.495911 
	C70.708786,67.768288 72.201111,67.179832 73.699181,67.164841 
	C80.118134,67.100609 86.538788,67.205315 93.117828,67.452530 
	C93.864960,67.521156 94.453079,67.385696 95.492889,67.252060 
	C99.214523,67.206810 102.484467,67.159744 105.754410,67.112671 
	C105.470894,68.159988 105.187370,69.207298 104.533997,70.705856 
	C104.081718,71.699905 103.999298,72.242699 103.529518,72.825676 
	C102.103905,72.887321 101.065666,72.908791 100.027420,72.930260 
z"/>
<path fill="#2E454E" opacity="1.000000" stroke="none" 
	d="
M88.111305,71.010719 
	C90.124695,71.054535 92.138077,71.098351 94.582153,71.197731 
	C94.676872,72.598663 94.340904,73.944023 94.002556,75.641762 
	C90.206100,78.904106 86.412041,81.814072 82.145607,84.498329 
	C79.965355,82.853661 78.257469,81.434700 76.550095,80.016151 
	C79.967567,79.022041 82.981445,78.145325 86.267227,77.043930 
	C87.978188,75.746956 89.417221,74.674660 90.903091,73.567467 
	C89.422455,72.211487 88.766884,71.611099 88.111305,71.010719 
z"/>
<path fill="#ECEEE5" opacity="1.000000" stroke="none" 
	d="
M107.905975,71.994919 
	C109.118263,69.474457 109.515465,66.029175 115.253441,66.995872 
	C113.052460,71.693924 111.122009,75.970245 108.959312,80.125687 
	C108.792160,80.446854 106.992493,79.918365 105.937759,79.037598 
	C106.584595,76.191910 107.245285,74.093414 107.905975,71.994919 
z"/>
<path fill="#25343A" opacity="1.000000" stroke="none" 
	d="
M111.206985,54.909241 
	C112.888206,55.607063 114.569420,56.304890 116.618645,57.076942 
	C117.232773,58.869667 117.478897,60.588165 117.901283,63.537415 
	C116.115143,62.685944 114.436111,61.885529 112.156097,60.731228 
	C109.039398,60.233837 106.523682,60.090336 104.006516,59.713104 
	C104.005066,59.479378 103.995415,59.011753 104.224655,58.740211 
	C106.704926,57.282192 108.955956,56.095715 111.206985,54.909241 
z"/>
<path fill="#CAC2B2" opacity="1.000000" stroke="none" 
	d="
M104.007957,59.946831 
	C106.523682,60.090336 109.039398,60.233837 111.821404,60.690918 
	C111.567001,61.710030 111.046318,62.415565 109.952522,63.184101 
	C108.887093,63.470734 108.394775,63.694366 107.902458,63.917995 
	C107.902458,63.917995 108.004936,63.956814 107.601624,63.892159 
	C106.483437,63.931065 105.768578,64.034622 104.809555,64.072845 
	C104.397987,64.026474 104.230560,64.045441 103.985764,63.718670 
	C103.586952,62.561913 103.265511,61.750896 103.078209,60.732628 
	C103.443390,60.285561 103.708595,60.092712 104.007957,59.946831 
z"/>
<path fill="#324B56" opacity="1.000000" stroke="none" 
	d="
M104.063126,64.064415 
	C104.230560,64.045441 104.397987,64.026474 105.024544,64.309090 
	C106.322556,64.740150 107.161430,64.869621 108.000305,64.999084 
	C107.449158,65.622742 106.898010,66.246407 106.050636,66.991371 
	C102.484467,67.159744 99.214523,67.206810 95.476944,66.902023 
	C95.014114,65.852119 95.018921,65.154060 95.408508,64.374008 
	C98.549904,64.216148 101.306511,64.140282 104.063126,64.064415 
z"/>
<path fill="#2E454E" opacity="1.000000" stroke="none" 
	d="
M107.560150,71.958740 
	C107.245285,74.093414 106.584595,76.191910 105.833328,78.650574 
	C105.010941,78.750282 104.279114,78.489815 103.426552,77.764290 
	C103.509499,75.794655 103.713188,74.290077 103.916885,72.785500 
	C103.999298,72.242699 104.081718,71.699905 104.401924,71.011154 
	C105.497917,71.217667 106.356117,71.570114 107.560150,71.958740 
z"/>
<path fill="#33474E" opacity="1.000000" stroke="none" 
	d="
M103.529510,72.825676 
	C103.713188,74.290077 103.509499,75.794655 103.153870,77.650963 
	C102.023392,76.539825 101.044868,75.076958 100.046883,73.272171 
	C101.065666,72.908791 102.103905,72.887321 103.529510,72.825676 
z"/>
<path fill="#494946" opacity="1.000000" stroke="none" 
	d="
M102.997604,84.018173 
	C102.133728,85.325951 101.269852,86.633720 100.405983,87.941490 
	C99.937775,87.541725 99.469574,87.141968 99.001366,86.742203 
	C100.106262,85.849831 101.211151,84.957458 102.657425,84.033234 
	C102.998810,84.001389 102.997604,84.018181 102.997604,84.018173 
z"/>
<path fill="#2E454E" opacity="1.000000" stroke="none" 
	d="
M102.990585,84.002243 
	C103.148308,83.147964 103.314255,82.292831 103.480209,81.437698 
	C103.843498,81.565926 104.206795,81.694153 104.570084,81.822380 
	C104.266510,82.514183 103.962936,83.205986 103.328484,83.957993 
	C102.997604,84.018181 102.998810,84.001389 102.990585,84.002243 
z"/>
<path fill="#33474E" opacity="1.000000" stroke="none" 
	d="
M107.987946,64.719711 
	C107.161430,64.869621 106.322556,64.740150 105.268692,64.374435 
	C105.768578,64.034622 106.483437,63.931065 107.560913,63.855476 
	C107.940887,64.069077 107.958244,64.254700 107.987946,64.719711 
z"/>
<path fill="#33474E" opacity="1.000000" stroke="none" 
	d="
M108.182724,63.944683 
	C108.394775,63.694366 108.887093,63.470734 109.663353,63.289181 
	C109.452530,63.544632 108.957756,63.757999 108.182724,63.944683 
z"/>
<path fill="#F9F8E9" opacity="1.000000" stroke="none" 
	d="
M17.644579,94.778175 
	C16.803492,93.847183 15.962408,92.916199 14.990120,91.325745 
	C14.152942,90.143974 13.446968,89.621658 12.740993,89.099342 
	C12.196509,88.608955 11.652024,88.118576 11.010761,87.018082 
	C10.455686,85.981750 9.997390,85.555527 9.539093,85.129303 
	C9.293461,84.630798 9.047830,84.132286 9.096892,83.170135 
	C9.011197,81.801598 8.630807,80.896698 8.250418,79.991806 
	C8.111665,79.260361 7.972912,78.528908 8.129498,77.254333 
	C11.163517,72.831772 10.974475,79.192024 12.943838,78.003265 
	C13.344178,78.947357 13.744518,79.891457 14.131706,81.527924 
	C14.536952,82.774071 14.955350,83.327850 15.373749,83.881630 
	C16.786680,85.119034 18.199610,86.356430 19.853516,88.181160 
	C20.797834,89.151253 21.501175,89.534027 22.204515,89.916794 
	C22.204515,89.916794 22.575291,89.933914 22.776022,90.190094 
	C22.976753,90.446274 23.050478,90.869781 23.190395,91.138763 
	C23.884897,91.606384 24.439482,91.805031 24.994066,92.003677 
	C24.994066,92.003677 25.000000,92.000000 25.032001,92.297112 
	C25.716375,92.712456 26.368750,92.830696 27.021124,92.948936 
	C27.782196,93.068153 28.543268,93.187363 30.027729,93.272125 
	C34.209496,93.107071 38.326130,97.796074 41.321972,91.999977 
	C39.040855,90.142311 37.038193,88.511414 35.025986,86.529953 
	C35.660473,84.499680 36.304501,82.819954 37.281872,81.148872 
	C39.601910,82.489769 41.588604,83.822029 43.731125,85.415878 
	C44.553829,86.131218 45.220699,86.584961 46.001945,87.365295 
	C54.018341,91.574005 57.140938,98.023758 56.354206,106.621674 
	C56.130230,109.069481 56.074738,111.532700 55.941982,113.988853 
	C54.531113,113.749123 53.120239,113.509384 51.246857,112.836807 
	C50.191742,111.604347 49.599140,110.804741 48.969315,109.657715 
	C47.294159,108.210457 45.656227,107.110611 43.961021,105.664154 
	C42.928284,104.880264 41.952816,104.442986 40.730797,103.997284 
	C40.484245,103.988853 39.990910,103.981247 39.884338,103.765518 
	C39.579689,103.281815 39.321545,103.098343 38.669113,102.995941 
	C37.889244,102.988625 37.443607,102.984734 36.999184,102.736969 
	C37.000404,102.493103 37.001343,102.005371 36.912727,101.836136 
	C36.548344,101.778236 36.272572,101.889565 35.998375,102.000443 
	C35.999950,102.000000 36.000095,101.997162 35.665703,101.993408 
	C34.885483,101.983063 34.439648,101.976471 33.921165,101.603928 
	C32.224403,100.827446 30.600294,100.416901 28.731239,99.996063 
	C28.486296,99.985779 27.996140,99.973114 27.945892,99.638199 
	C25.920149,98.873238 23.944654,98.443207 21.674664,97.922035 
	C20.134975,96.813324 18.889778,95.795746 17.644579,94.778175 
z"/>
<path fill="#283B44" opacity="1.000000" stroke="none" 
	d="
M56.041924,114.388626 
	C56.074738,111.532700 56.130230,109.069481 56.354206,106.621674 
	C57.140938,98.023758 54.018341,91.574005 46.273399,87.351273 
	C46.611355,86.999420 46.792221,86.988197 47.392387,86.986221 
	C48.648476,86.948395 49.485260,86.901329 50.668388,86.816254 
	C53.559776,89.245605 56.104820,91.712975 58.722351,94.573318 
	C59.453884,97.637657 60.112926,100.309006 60.649548,103.429276 
	C60.460320,107.875443 60.393513,111.872704 60.245785,116.256973 
	C60.114468,117.432556 60.064068,118.221146 60.013668,119.009727 
	C56.420509,119.714516 55.852844,117.644325 56.041924,114.388626 
z"/>
<path fill="#33444A" opacity="1.000000" stroke="none" 
	d="
M17.170504,94.886215 
	C18.889778,95.795746 20.134975,96.813324 21.841213,98.228882 
	C23.572399,99.077469 24.842543,99.528084 26.033451,100.337181 
	C27.003260,101.831123 27.864700,103.277184 29.135836,104.044930 
	C33.272396,106.543312 37.558743,108.793709 41.868256,111.402039 
	C42.463768,112.386757 42.978470,113.108986 43.493172,113.831215 
	C42.862251,114.446617 41.957188,115.707535 41.644089,115.574562 
	C39.292614,114.575935 37.057823,113.302544 34.449860,112.029121 
	C27.718218,107.106758 21.323242,102.270378 14.793206,97.165352 
	C15.337573,96.262558 16.017000,95.628410 17.170504,94.886215 
z"/>
<path fill="#303D41" opacity="1.000000" stroke="none" 
	d="
M98.134232,102.940346 
	C101.207840,100.697685 104.281441,98.455025 107.669945,96.083809 
	C108.730354,96.629059 109.475861,97.302849 110.572388,97.975403 
	C107.632202,100.732246 104.340981,103.490318 100.856766,106.531631 
	C95.942169,109.504250 91.220566,112.193642 86.252098,115.053383 
	C84.045464,114.565414 80.658836,119.972443 80.425262,113.388077 
	C82.845650,112.295448 84.926537,111.815521 86.805023,110.913918 
	C90.857651,108.968819 94.811729,106.817062 98.759636,104.664589 
	C98.840500,104.620514 98.355339,103.538269 98.134232,102.940346 
z"/>
<path fill="#FBFBFB" opacity="1.000000" stroke="none" 
	d="
M97.798317,102.915161 
	C98.355339,103.538269 98.840500,104.620514 98.759636,104.664589 
	C94.811729,106.817062 90.857651,108.968819 86.805023,110.913918 
	C84.926537,111.815521 82.845650,112.295448 80.484116,113.012688 
	C79.523041,112.883972 78.934380,112.709114 78.162849,112.281395 
	C80.423210,110.036644 82.725342,107.828735 85.349861,106.114365 
	C87.913666,104.439659 90.726089,103.050446 93.597565,101.992294 
	C94.634743,101.610100 96.159912,102.552185 97.798317,102.915161 
z"/>
<path fill="#1F3039" opacity="1.000000" stroke="none" 
	d="
M67.196320,115.017159 
	C67.156494,115.760414 67.116669,116.503677 67.153549,117.612892 
	C66.444756,118.324074 65.659248,118.669304 64.518051,118.574966 
	C64.072975,117.406509 63.983593,116.677620 63.983040,115.585236 
	C64.072952,114.478149 64.074020,113.734581 64.369415,112.713272 
	C64.819801,109.320099 64.975868,106.204666 65.471573,103.057343 
	C66.265884,103.034996 66.720558,103.044525 67.104782,103.506714 
	C67.088341,107.645302 67.142334,111.331230 67.196320,115.017159 
z"/>
<path fill="#DBD3C3" opacity="1.000000" stroke="none" 
	d="
M43.883453,113.975601 
	C42.978470,113.108986 42.463768,112.386757 42.288403,111.370163 
	C44.754002,110.718903 46.880272,110.362015 49.006538,110.005127 
	C49.599140,110.804741 50.191742,111.604347 50.920715,112.677353 
	C49.250484,115.977333 46.787571,115.196381 43.883453,113.975601 
z"/>
<path fill="#AAA99E" opacity="1.000000" stroke="none" 
	d="
M63.894207,115.948746 
	C63.983593,116.677620 64.072975,117.406509 64.164124,118.505516 
	C63.058342,118.942818 61.950802,119.009995 60.428463,119.043457 
	C60.064068,118.221146 60.114468,117.432556 60.602535,116.275696 
	C61.991539,115.921196 62.942871,115.934967 63.894207,115.948746 
z"/>
<path fill="#E5E6DE" opacity="1.000000" stroke="none" 
	d="
M18.942955,81.919235 
	C16.891253,77.194626 14.839551,72.470016 12.585330,67.279045 
	C14.334098,67.144554 15.278164,67.071945 16.805267,67.302353 
	C18.595362,70.403755 19.802420,73.202141 21.025278,76.362854 
	C21.479200,77.855125 21.917324,78.985077 21.977978,80.147705 
	C20.714659,80.759995 19.828806,81.339615 18.942955,81.919235 
z"/>
<path fill="#273C46" opacity="1.000000" stroke="none" 
	d="
M35.035530,86.880516 
	C37.038193,88.511414 39.040855,90.142311 41.321972,91.999977 
	C38.326130,97.796074 34.209496,93.107071 30.376616,93.106125 
	C29.995310,92.233360 29.988504,91.492157 30.294151,90.241959 
	C31.427057,88.755600 32.247509,87.778229 33.395264,86.833229 
	C34.160221,86.870567 34.597878,86.875542 35.035530,86.880516 
z"/>
<path fill="#2B414A" opacity="1.000000" stroke="none" 
	d="
M21.009480,76.000519 
	C19.802420,73.202141 18.595362,70.403755 17.189819,67.320305 
	C16.993570,66.281731 16.995804,65.528214 17.391312,64.397583 
	C19.541451,64.196991 21.298319,64.373512 23.522091,64.599281 
	C24.929520,64.659195 25.870043,64.669861 26.998074,65.130066 
	C25.680353,66.425224 24.175129,67.270851 22.209505,68.375130 
	C22.727755,69.175041 23.357885,70.147629 23.992216,71.508591 
	C23.994247,72.933685 23.992081,73.970413 23.696255,75.129593 
	C22.604891,75.501541 21.807184,75.751030 21.009480,76.000519 
z"/>
<path fill="#2B414A" opacity="1.000000" stroke="none" 
	d="
M33.067959,86.800865 
	C32.247509,87.778229 31.427057,88.755600 30.291100,89.871353 
	C28.855734,88.778351 27.735878,87.546974 26.303452,85.832596 
	C25.989426,84.916298 25.987968,84.482986 26.024448,83.693466 
	C26.973528,81.888657 27.884668,80.440071 28.855921,79.343918 
	C29.620113,81.101013 30.324192,82.505676 31.105961,84.131363 
	C31.334227,84.641571 31.558914,84.851364 31.984089,85.230637 
	C32.429626,85.919952 32.748795,86.360405 33.067959,86.800865 
z"/>
<path fill="#F2F3EB" opacity="1.000000" stroke="none" 
	d="
M12.939784,77.627594 
	C10.974475,79.192024 11.163517,72.831772 8.150504,76.881447 
	C7.645950,74.018303 7.415730,70.984901 7.127962,67.520172 
	C8.409389,68.628487 10.004818,70.018806 11.013374,71.750862 
	C11.973001,73.398895 12.319600,75.403877 12.939784,77.627594 
z"/>
<path fill="#485458" opacity="1.000000" stroke="none" 
	d="
M25.986507,84.049683 
	C25.987968,84.482986 25.989426,84.916298 26.003370,85.674347 
	C25.255289,86.282135 24.140755,87.031654 23.794380,86.768837 
	C22.144705,85.517067 20.703892,83.990036 19.065857,82.240089 
	C19.828806,81.339615 20.714659,80.759995 22.245104,80.279037 
	C23.921967,81.601685 24.954237,82.825684 25.986507,84.049683 
z"/>
<path fill="#DEE0E2" opacity="1.000000" stroke="none" 
	d="
M23.055185,64.550034 
	C21.298319,64.373512 19.541451,64.196991 17.392628,64.020844 
	C15.721502,63.589409 14.442336,63.157604 13.118883,62.375984 
	C14.757939,61.941380 16.441280,61.856594 18.947727,61.820793 
	C20.859575,61.995148 21.948315,62.120518 23.054617,62.533871 
	C23.066515,63.397915 23.060850,63.973972 23.055185,64.550034 
z"/>
<path fill="#F2F3EB" opacity="1.000000" stroke="none" 
	d="
M26.832371,92.728859 
	C26.368750,92.830696 25.716375,92.712456 25.030430,92.299812 
	C25.545778,92.173195 26.094696,92.340988 26.832371,92.728859 
z"/>
<path fill="#F2F3EB" opacity="1.000000" stroke="none" 
	d="
M22.062340,89.656181 
	C21.501175,89.534027 20.797834,89.151253 20.028233,88.444962 
	C20.614704,88.546150 21.267435,88.970863 22.062340,89.656181 
z"/>
<path fill="#F2F3EB" opacity="1.000000" stroke="none" 
	d="
M24.879063,91.776451 
	C24.439482,91.805031 23.884897,91.606384 23.423048,91.185913 
	C23.515781,90.964088 23.985603,90.895905 23.985603,90.895905 
	C24.245089,91.113678 24.504572,91.331451 24.879063,91.776451 
z"/>
<path fill="#F2F3EB" opacity="1.000000" stroke="none" 
	d="
M15.288912,83.545288 
	C14.955350,83.327850 14.536952,82.774071 14.136751,81.837097 
	C14.504657,82.038918 14.854366,82.623932 15.288912,83.545288 
z"/>
<path fill="#273C46" opacity="1.000000" stroke="none" 
	d="
M23.865923,90.691429 
	C23.985603,90.895905 23.515781,90.964088 23.283131,90.916931 
	C23.050478,90.869781 22.976753,90.446274 22.956751,90.232269 
	C23.256969,90.087479 23.526800,90.243713 23.865923,90.691429 
z"/>
<path fill="#F2F3EB" opacity="1.000000" stroke="none" 
	d="
M8.200828,80.312599 
	C8.630807,80.896698 9.011197,81.801598 9.125267,82.883888 
	C8.623043,82.251991 8.387140,81.442688 8.200828,80.312599 
z"/>
<path fill="#F2F3EB" opacity="1.000000" stroke="none" 
	d="
M9.583677,85.358620 
	C9.997390,85.555527 10.455686,85.981750 10.940178,86.747711 
	C10.670280,86.872421 10.374187,86.657394 9.877516,86.247482 
	C9.676937,86.052605 9.628261,85.587936 9.583677,85.358620 
z"/>
<path fill="#F2F3EB" opacity="1.000000" stroke="none" 
	d="
M12.814751,89.437927 
	C13.446968,89.621658 14.152942,90.143974 14.855310,91.042603 
	C14.197307,90.871437 13.542907,90.323975 12.814751,89.437927 
z"/>
<path fill="#F7F7EA" opacity="1.000000" stroke="none" 
	d="
M58.023430,56.155563 
	C52.461403,56.430283 46.900372,56.831844 41.336533,56.875454 
	C40.188324,56.884453 39.029659,55.559910 38.155453,54.205753 
	C42.603550,48.702652 46.772011,43.843807 50.971138,38.989403 
	C51.001801,38.993843 50.983414,38.934669 51.200310,38.820477 
	C51.686333,38.497162 51.861874,38.227188 52.238213,37.745579 
	C55.137363,34.443111 57.742126,31.291428 60.346893,28.139746 
	C63.154015,25.979053 65.961136,23.818361 68.976013,22.250715 
	C69.199165,26.700329 64.231041,30.485302 69.214676,34.060913 
	C65.877167,37.246960 62.817318,40.167942 59.757473,43.088924 
	C60.088486,43.545376 60.419498,44.001831 60.750511,44.458286 
	C63.115093,43.466167 65.441765,42.355232 67.875191,41.578888 
	C68.381813,41.417259 69.283501,42.493984 69.718552,43.174217 
	C66.246254,47.424877 63.058521,51.501335 59.568726,55.691803 
	C58.852253,55.922401 58.437843,56.038982 58.023430,56.155563 
z"/>
<path fill="#3E5863" opacity="1.000000" stroke="none" 
	d="
M60.001488,28.000475 
	C57.742126,31.291428 55.137363,34.443111 52.084873,37.610313 
	C51.419235,38.062111 51.201324,38.498390 50.983414,38.934669 
	C50.983414,38.934669 51.001801,38.993843 50.591110,38.998730 
	C47.236668,39.522823 44.288219,40.099659 42.210060,36.989250 
	C42.173126,36.933971 40.587944,37.913128 39.430382,38.488045 
	C33.807247,43.690205 28.478920,48.813923 22.886732,54.075493 
	C22.456842,54.562798 22.290815,54.912247 22.163246,55.228989 
	C22.201708,55.196278 22.265249,55.274757 22.265249,55.274757 
	C21.074554,55.480812 19.883860,55.686867 18.320812,55.906422 
	C17.874367,54.160439 17.800274,52.400959 17.865494,50.322544 
	C19.152025,48.745522 20.269688,47.458912 21.451506,46.234215 
	C27.003345,40.480923 32.532913,34.704853 38.177605,29.043777 
	C39.057613,28.161217 40.491169,27.830599 42.117378,27.508091 
	C43.915272,28.914318 45.264534,30.057207 46.613800,31.200096 
	C47.743404,29.469534 48.873005,27.738970 50.002609,26.008408 
	C51.112560,25.102600 52.222507,24.196793 53.631016,23.134346 
	C55.838409,24.605541 57.747246,26.233374 60.001488,28.000475 
z"/>
<path fill="#273335" opacity="1.000000" stroke="none" 
	d="
M111.069656,54.593895 
	C108.955956,56.095715 106.704926,57.282192 103.775558,58.737923 
	C100.398430,59.007565 97.699631,59.007954 94.944290,58.657509 
	C92.773285,57.213268 90.658829,56.119869 88.681564,54.694649 
	C90.906631,51.639061 92.994492,48.915295 95.857613,45.180145 
	C90.947433,46.792107 87.255783,48.004040 83.564125,49.215977 
	C84.761574,46.971981 86.384613,45.415028 88.055923,43.911762 
	C90.389801,41.812553 91.076454,34.593616 89.105629,32.533733 
	C90.384430,32.557438 91.945450,32.126335 92.879341,32.705856 
	C94.491455,33.706242 95.713905,35.334572 97.385483,36.843964 
	C102.091522,42.751846 106.511932,48.515198 111.069656,54.593895 
z"/>
<path fill="#F4F4EA" opacity="1.000000" stroke="none" 
	d="
M88.960945,32.775085 
	C91.076454,34.593616 90.389801,41.812553 88.055923,43.911762 
	C86.384613,45.415028 84.761574,46.971981 83.564125,49.215977 
	C87.255783,48.004040 90.947433,46.792107 95.857613,45.180145 
	C92.994492,48.915295 90.906631,51.639061 88.541939,54.792900 
	C88.093407,55.394527 88.009659,55.601631 87.548721,55.911270 
	C81.044960,55.988853 75.006348,55.999439 68.826454,55.658497 
	C71.724297,51.435352 74.763435,47.563732 78.018738,43.476463 
	C79.183334,42.243305 80.131767,41.225796 81.399933,40.050797 
	C83.022720,38.293236 84.325790,36.693161 85.628860,35.093086 
	C86.691322,34.400864 87.753792,33.708649 88.960945,32.775085 
z"/>
<path fill="#263335" opacity="1.000000" stroke="none" 
	d="
M81.080200,40.208286 
	C80.131767,41.225796 79.183334,42.243305 77.548096,43.259262 
	C74.575233,43.171810 72.289177,43.085915 70.003128,43.000015 
	C69.283501,42.493984 68.381813,41.417259 67.875191,41.578888 
	C65.441765,42.355232 63.115093,43.466167 60.750511,44.458286 
	C60.419498,44.001831 60.088486,43.545376 59.757473,43.088924 
	C62.817318,40.167942 65.877167,37.246960 69.214676,34.060913 
	C64.231041,30.485302 69.199165,26.700329 69.220093,22.446016 
	C70.640396,22.719700 72.382950,23.065966 73.341591,24.123104 
	C76.300430,27.385942 78.960167,30.920027 81.829330,35.037361 
	C81.641792,37.220070 81.361000,38.714176 81.080200,40.208286 
z"/>
<path fill="#26353B" opacity="1.000000" stroke="none" 
	d="
M81.399933,40.050797 
	C81.361000,38.714176 81.641792,37.220070 81.969910,35.343143 
	C82.918472,34.987194 83.819725,35.014065 85.174911,35.067009 
	C84.325790,36.693161 83.022720,38.293236 81.399933,40.050797 
z"/>
<path fill="#EEF1EE" opacity="1.000000" stroke="none" 
	d="
M49.888184,25.737625 
	C48.873005,27.738970 47.743404,29.469534 46.613800,31.200096 
	C45.264534,30.057207 43.915272,28.914318 42.474953,27.432278 
	C44.328499,26.091936 46.273098,25.090744 48.586910,23.999269 
	C49.228668,24.428274 49.501213,24.947559 49.888184,25.737625 
z"/>
<path fill="#1C3642" opacity="1.000000" stroke="none" 
	d="
M50.322041,86.854263 
	C49.485260,86.901329 48.648476,86.948395 47.327808,86.617119 
	C45.754379,85.877281 44.664837,85.515785 43.575294,85.154297 
	C41.588604,83.822029 39.601910,82.489769 37.296928,81.026855 
	C36.978645,80.896202 37.050659,80.661095 36.931267,80.501312 
	C36.618443,80.147049 36.387554,80.021400 36.072495,79.969307 
	C36.025784,79.974037 36.027657,79.880157 35.910915,79.679962 
	C35.587044,79.234146 35.326794,79.075813 35.006317,79.004494 
	C34.999214,79.004204 34.995262,78.990974 35.030876,78.655876 
	C35.782272,77.542137 36.498058,76.763496 37.462776,76.231476 
	C40.780491,77.622856 43.849274,78.767632 46.994259,79.940834 
	C48.380035,78.160339 49.656982,76.519669 50.918243,74.899155 
	C48.985470,74.055855 47.616833,73.458694 45.923248,72.400658 
	C45.290615,71.725929 44.982929,71.512077 44.747189,71.179077 
	C44.819130,71.059921 44.928829,70.804085 45.348206,70.838264 
	C46.777611,70.028908 47.787640,69.185371 48.797668,68.341827 
	C49.649700,67.891815 50.501740,67.441811 51.909317,67.260597 
	C52.962975,68.691971 53.461086,69.854546 53.966187,71.456512 
	C52.756130,76.882027 51.539085,81.868141 50.322041,86.854263 
z"/>
<path fill="#E7E9E6" opacity="1.000000" stroke="none" 
	d="
M53.832199,63.843521 
	C55.024609,62.973354 56.217014,62.103188 58.105274,61.121254 
	C59.857056,60.944149 60.912979,60.878803 62.281776,60.872223 
	C63.065269,60.628963 63.535896,60.326935 64.329208,59.951492 
	C66.435631,59.914719 68.219368,59.951355 70.045609,60.248787 
	C70.381882,60.679207 70.675659,60.848827 70.892746,61.400272 
	C68.948463,62.433632 67.080879,63.085163 64.159943,64.104179 
	C65.466576,65.880981 66.633278,67.467506 67.809021,69.447884 
	C67.938255,70.877060 68.058434,71.912376 67.860504,72.831345 
	C65.993187,71.505966 64.443977,70.296936 62.894772,69.087914 
	C62.564468,70.499695 62.907848,71.162796 63.301495,71.794579 
	C63.705040,72.442245 64.157768,73.059273 65.126175,74.475128 
	C63.097126,74.919594 61.697250,75.226234 60.297379,75.532875 
	C60.187691,74.298096 60.078003,73.063316 59.968315,71.828537 
	C58.211971,69.910271 57.366280,67.480377 56.258251,65.176659 
	C55.987045,64.612785 54.857288,64.461868 54.049942,64.051491 
	C53.977623,63.981892 53.832199,63.843521 53.832199,63.843521 
z"/>
<path fill="#EBEDE5" opacity="1.000000" stroke="none" 
	d="
M23.150595,53.937645 
	C28.478920,48.813923 33.807247,43.690205 39.517200,38.848274 
	C38.567005,42.740093 37.235191,46.350121 35.903374,49.960152 
	C33.537067,56.338234 32.227737,56.932079 22.486685,55.609795 
	C22.265249,55.274757 22.201708,55.196278 22.467476,55.120461 
	C22.872362,54.675644 23.011480,54.306644 23.150595,53.937645 
z"/>
<path fill="#26353B" opacity="1.000000" stroke="none" 
	d="
M69.718552,43.174217 
	C72.289177,43.085915 74.575233,43.171810 77.331924,43.474915 
	C74.763435,47.563732 71.724297,51.435352 68.486008,55.722908 
	C66.521782,57.094734 64.756721,58.050629 62.762947,59.009956 
	C62.534233,59.013393 62.076763,59.012005 61.722279,59.002548 
	C60.895138,58.967583 60.422478,58.942078 59.949821,58.916573 
	C59.949821,58.916573 59.970203,58.485870 59.977074,57.856293 
	C59.946224,56.677074 59.908508,56.127434 59.870789,55.577789 
	C63.058521,51.501335 66.246254,47.424877 69.718552,43.174217 
z"/>
<path fill="#C6C1B3" opacity="1.000000" stroke="none" 
	d="
M48.494164,68.093262 
	C47.787640,69.185371 46.777611,70.028908 45.052689,70.899384 
	C42.729565,70.938950 41.121330,70.951576 39.047432,70.884872 
	C36.722164,70.873856 34.862568,70.942162 32.604866,70.959610 
	C31.142416,71.002525 30.078066,71.096291 28.599501,71.118042 
	C26.786196,71.070763 25.387106,71.095490 23.988018,71.120224 
	C23.357885,70.147629 22.727755,69.175041 22.209505,68.375130 
	C24.175129,67.270851 25.680353,66.425224 27.305246,65.047928 
	C28.491722,64.636971 29.558531,64.757690 30.416862,65.345947 
	C34.139542,66.183624 38.070702,66.553764 42.001858,66.923904 
	C44.064793,67.230835 46.127724,67.537766 48.494164,68.093262 
z"/>
<path fill="#2B3C41" opacity="1.000000" stroke="none" 
	d="
M36.148384,50.102863 
	C37.235191,46.350121 38.567005,42.740093 39.812004,38.769836 
	C40.587944,37.913128 42.173126,36.933971 42.210060,36.989250 
	C44.288219,40.099659 47.236668,39.522823 50.560448,38.994286 
	C46.772011,43.843807 42.603550,48.702652 38.169334,53.765137 
	C37.400185,52.727707 36.896786,51.486641 36.148384,50.102863 
z"/>
<path fill="#FBFBFB" opacity="1.000000" stroke="none" 
	d="
M30.625340,64.878403 
	C29.558531,64.757690 28.491722,64.636971 27.117741,64.598389 
	C25.870043,64.669861 24.929520,64.659195 23.522091,64.599281 
	C23.060850,63.973972 23.066515,63.397915 23.509668,62.425934 
	C25.735352,62.019394 27.528311,62.088757 29.310806,61.982533 
	C33.883213,61.710049 38.450974,61.359585 43.020592,61.040298 
	C44.559441,61.422142 46.098289,61.803982 47.637142,62.185825 
	C47.655014,62.534840 47.672886,62.883854 47.690762,63.232864 
	C45.915909,63.544022 44.141060,63.855179 41.678833,64.485611 
	C37.536079,64.829391 34.080711,64.853897 30.625340,64.878403 
z"/>
<path fill="#414B4E" opacity="1.000000" stroke="none" 
	d="
M42.734703,60.731178 
	C38.450974,61.359585 33.883213,61.710049 29.310806,61.982533 
	C27.528311,62.088757 25.735352,62.019394 23.492107,62.137947 
	C21.948315,62.120518 20.859575,61.995148 19.368263,61.783459 
	C19.669708,61.133945 20.374712,60.081699 21.077591,60.083118 
	C28.201529,60.097477 35.325119,60.283894 42.734703,60.731178 
z"/>
<path fill="#30454F" opacity="1.000000" stroke="none" 
	d="
M30.416862,65.345947 
	C34.080711,64.853897 37.536079,64.829391 41.447380,64.775253 
	C41.931717,65.229454 41.960129,65.713295 41.995197,66.560516 
	C38.070702,66.553764 34.139542,66.183624 30.416862,65.345947 
z"/>
<path fill="#E7E9E6" opacity="1.000000" stroke="none" 
	d="
M53.959198,71.017120 
	C53.461086,69.854546 52.962975,68.691971 52.295357,67.256348 
	C52.517685,66.041801 52.909512,65.100311 53.566765,64.001167 
	C53.832199,63.843521 53.977623,63.981892 54.004665,64.430275 
	C54.007538,66.924812 53.983368,68.970970 53.959198,71.017120 
z"/>
<path fill="#152A35" opacity="1.000000" stroke="none" 
	d="
M59.633999,58.976135 
	C60.422478,58.942078 60.895138,58.967583 61.698940,59.302368 
	C62.009693,60.012249 61.989300,60.412853 61.968903,60.813454 
	C60.912979,60.878803 59.857056,60.944149 58.404419,60.985184 
	C58.444530,60.319149 58.881355,59.677425 59.633999,58.976135 
z"/>
<path fill="#152A35" opacity="1.000000" stroke="none" 
	d="
M59.568726,55.691803 
	C59.908508,56.127434 59.946224,56.677074 59.989651,57.641068 
	C59.362095,57.628658 58.728836,57.201897 58.059502,56.465351 
	C58.437843,56.038982 58.852253,55.922401 59.568726,55.691803 
z"/>
<path fill="#263B45" opacity="1.000000" stroke="none" 
	d="
M68.178612,72.947693 
	C68.058434,71.912376 67.938255,70.877060 68.163132,69.413162 
	C68.743652,68.956032 68.979111,68.927467 69.214569,68.898911 
	C72.667221,69.660873 76.119881,70.422829 79.431053,71.698524 
	C78.522263,73.354851 77.754951,74.497452 76.989311,75.641937 
	C76.184120,75.270111 75.377266,74.896385 74.570419,74.522652 
	C74.431862,74.985924 74.293304,75.449203 74.154747,75.912476 
	C75.777031,76.306152 77.399307,76.699829 79.256546,77.345673 
	C80.985802,77.434021 82.480095,77.270203 84.311867,77.026482 
	C85.098000,77.053925 85.546654,77.161270 85.995316,77.268616 
	C82.981445,78.145325 79.967567,79.022041 76.550095,80.016151 
	C78.257469,81.434700 79.965355,82.853661 81.816841,84.586098 
	C78.264503,88.071594 74.568573,91.243614 70.451149,94.234070 
	C69.610489,93.238548 69.191315,92.424606 68.897110,91.294693 
	C70.596565,88.927277 72.171043,86.875847 74.080177,84.388374 
	C72.512039,81.348412 70.345329,77.148056 68.178612,72.947693 
z"/>
<path fill="#3B4D54" opacity="1.000000" stroke="none" 
	d="
M68.772141,91.610664 
	C69.191315,92.424606 69.610489,93.238548 70.188728,94.482468 
	C69.717018,97.130661 69.086235,99.348869 68.290161,102.096115 
	C67.808319,102.768120 67.491768,102.911087 67.175224,103.054054 
	C66.720558,103.044525 66.265884,103.034996 65.437515,102.656288 
	C65.293045,100.719902 65.522270,99.152687 65.802673,97.299431 
	C65.945877,96.444962 66.037910,95.876549 66.359665,95.072533 
	C67.316971,93.761513 68.044556,92.686089 68.772141,91.610664 
z"/>
<path fill="#E6E1D1" opacity="1.000000" stroke="none" 
	d="
M67.104782,103.506714 
	C67.491768,102.911087 67.808319,102.768120 68.326447,102.450676 
	C68.337494,106.449135 68.146957,110.622078 67.576370,114.906082 
	C67.142334,111.331230 67.088341,107.645302 67.104782,103.506714 
z"/>
<path fill="#324B56" opacity="1.000000" stroke="none" 
	d="
M69.214188,68.495903 
	C68.979111,68.927467 68.743652,68.956032 68.154083,69.019302 
	C66.633278,67.467506 65.466576,65.880981 64.159943,64.104179 
	C67.080879,63.085163 68.948463,62.433632 71.292526,61.390533 
	C72.566452,60.941082 73.363907,60.883198 74.489014,60.862183 
	C75.471237,60.846928 76.125816,60.794800 76.851257,60.822685 
	C76.922127,60.902699 77.056511,61.068943 77.000687,61.487251 
	C77.575211,62.601124 78.144035,63.825127 78.845848,63.906834 
	C83.541985,64.453590 88.266441,64.756981 92.991806,65.490631 
	C92.987541,66.310753 92.973183,66.779594 92.958817,67.248428 
	C86.538788,67.205315 80.118134,67.100609 73.699181,67.164841 
	C72.201111,67.179832 70.708786,67.768288 69.214188,68.495903 
z"/>
<path fill="#EDEAE5" opacity="1.000000" stroke="none" 
	d="
M79.021591,77.093506 
	C77.399307,76.699829 75.777031,76.306152 74.154747,75.912476 
	C74.293304,75.449203 74.431862,74.985924 74.570419,74.522652 
	C75.377266,74.896385 76.184120,75.270111 76.989311,75.641937 
	C77.754951,74.497452 78.522263,73.354851 79.597824,72.069168 
	C82.380371,71.699478 84.854683,71.472878 87.720146,71.128502 
	C88.766884,71.611099 89.422455,72.211487 90.903091,73.567467 
	C89.417221,74.674660 87.978188,75.746956 86.267227,77.043930 
	C85.546654,77.161270 85.098000,77.053925 83.903809,76.951927 
	C81.779381,77.002693 80.400490,77.048096 79.021591,77.093506 
z"/>
<path fill="#4D5C63" opacity="1.000000" stroke="none" 
	d="
M93.117828,67.452530 
	C92.973183,66.779594 92.987541,66.310753 93.257561,65.388412 
	C94.016724,64.775269 94.520226,64.615631 95.023727,64.455994 
	C95.018921,65.154060 95.014114,65.852119 95.025253,66.900208 
	C94.453079,67.385696 93.864960,67.521156 93.117828,67.452530 
z"/>
<path fill="#39464A" opacity="1.000000" stroke="none" 
	d="
M95.000839,59.008347 
	C97.699631,59.007954 100.398430,59.007565 103.546318,59.009460 
	C103.995415,59.011753 104.005066,59.479378 104.006516,59.713104 
	C103.708595,60.092712 103.443390,60.285561 102.639725,60.759628 
	C93.730240,61.018898 85.393372,61.043919 77.056511,61.068943 
	C77.056511,61.068943 76.922127,60.902699 76.927063,60.539242 
	C76.953934,59.782543 76.975868,59.389297 77.455894,58.997097 
	C81.271339,58.990097 84.628685,58.982056 88.424370,58.985863 
	C90.908745,59.001251 92.954796,59.004799 95.000839,59.008347 
z"/>
<path fill="#FDFEFE" opacity="1.000000" stroke="none" 
	d="
M77.000687,61.487251 
	C85.393372,61.043919 93.730240,61.018898 102.505585,60.966881 
	C103.265511,61.750896 103.586952,62.561913 103.985764,63.718670 
	C101.306511,64.140282 98.549904,64.216148 95.408508,64.374008 
	C94.520226,64.615631 94.016724,64.775269 93.247467,65.037125 
	C88.266441,64.756981 83.541985,64.453590 78.845848,63.906834 
	C78.144035,63.825127 77.575211,62.601124 77.000687,61.487251 
z"/>
<path fill="#FDFDFD" opacity="1.000000" stroke="none" 
	d="
M48.969315,109.657715 
	C46.880272,110.362015 44.754002,110.718903 42.207588,111.107666 
	C37.558743,108.793709 33.272396,106.543312 29.135836,104.044930 
	C27.864700,103.277184 27.003260,101.831123 26.347178,100.355179 
	C27.158804,100.000839 27.577473,99.986977 27.996140,99.973114 
	C27.996140,99.973114 28.486296,99.985779 28.750158,100.291946 
	C30.673954,101.055367 32.333885,101.512619 33.993816,101.969872 
	C34.439648,101.976471 34.885483,101.983063 35.768021,102.215096 
	C36.403542,102.716934 36.667953,102.897041 36.997967,102.980843 
	C37.443607,102.984734 37.889244,102.988625 38.770134,103.216431 
	C39.402321,103.714897 39.664162,103.895195 39.990910,103.981247 
	C39.990910,103.981247 40.484245,103.988853 40.784512,104.343628 
	C42.062618,105.135849 43.040459,105.573303 44.018295,106.010765 
	C45.656227,107.110611 47.294159,108.210457 48.969315,109.657715 
z"/>
<path fill="#FDFDFC" opacity="1.000000" stroke="none" 
	d="
M33.395264,86.833229 
	C32.748795,86.360405 32.429626,85.919952 32.006126,84.965912 
	C31.610619,84.271667 31.319447,84.090996 31.028271,83.910332 
	C30.324192,82.505676 29.620113,81.101013 29.057100,79.013748 
	C31.130533,78.551086 33.062897,78.771027 34.995262,78.990974 
	C34.995262,78.990974 34.999214,79.004204 35.084442,79.241226 
	C35.367516,79.800392 35.653511,79.934364 36.027657,79.880157 
	C36.027657,79.880157 36.025784,79.974037 36.112152,80.212006 
	C36.198524,80.449982 36.571239,80.770844 36.571239,80.770844 
	C36.571239,80.770844 37.050659,80.661095 37.050659,80.661095 
	C37.050659,80.661095 36.978645,80.896202 36.963585,81.018219 
	C36.304501,82.819954 35.660473,84.499680 35.025986,86.529953 
	C34.597878,86.875542 34.160221,86.870567 33.395264,86.833229 
z"/>
<path fill="#F2F3EB" opacity="1.000000" stroke="none" 
	d="
M27.945892,99.638199 
	C27.577473,99.986977 27.158804,100.000839 26.426411,99.996704 
	C24.842543,99.528084 23.572399,99.077469 22.135708,98.320007 
	C23.944654,98.443207 25.920149,98.873238 27.945892,99.638199 
z"/>
<path fill="#F2F3EB" opacity="1.000000" stroke="none" 
	d="
M33.921165,101.603928 
	C32.333885,101.512619 30.673954,101.055367 28.995102,100.302238 
	C30.600294,100.416901 32.224403,100.827446 33.921165,101.603928 
z"/>
<path fill="#F2F3EB" opacity="1.000000" stroke="none" 
	d="
M43.961021,105.664154 
	C43.040459,105.573303 42.062618,105.135849 41.031067,104.352051 
	C41.952816,104.442986 42.928284,104.880264 43.961021,105.664154 
z"/>
<path fill="#233A43" opacity="1.000000" stroke="none" 
	d="
M43.731125,85.415878 
	C44.664837,85.515785 45.754379,85.877281 46.908501,86.607880 
	C46.792221,86.988197 46.611355,86.999420 46.159027,87.024673 
	C45.220699,86.584961 44.553829,86.131218 43.731125,85.415878 
z"/>
<path fill="#F2F3EB" opacity="1.000000" stroke="none" 
	d="
M39.884338,103.765518 
	C39.664162,103.895195 39.402321,103.714897 39.104362,103.219864 
	C39.321545,103.098343 39.579689,103.281815 39.884338,103.765518 
z"/>
<path fill="#F2F3EB" opacity="1.000000" stroke="none" 
	d="
M36.999184,102.736969 
	C36.667953,102.897041 36.403542,102.716934 36.102409,102.218849 
	C36.000095,101.997162 35.999950,102.000000 36.249542,101.998932 
	C36.666538,102.000374 36.833942,102.002876 37.001343,102.005371 
	C37.001343,102.005371 37.000404,102.493103 36.999184,102.736969 
z"/>
<path fill="#FDFDFD" opacity="1.000000" stroke="none" 
	d="
M36.912727,101.836136 
	C36.833942,102.002876 36.666538,102.000374 36.247967,101.999382 
	C36.272572,101.889565 36.548344,101.778236 36.912727,101.836136 
z"/>
<path fill="#F5F6E9" opacity="1.000000" stroke="none" 
	d="
M68.897110,91.294693 
	C68.044556,92.686089 67.316971,93.761513 66.204910,94.721794 
	C64.215752,94.074867 62.611073,93.543091 60.779228,93.109238 
	C60.266087,93.401054 60.076740,93.664429 59.648689,94.029922 
	C59.092186,94.101814 58.871025,94.141075 58.649864,94.180336 
	C56.104820,91.712975 53.559776,89.245605 50.668388,86.816254 
	C51.539085,81.868141 52.756130,76.882027 53.966187,71.456512 
	C53.983368,68.970970 54.007538,66.924812 54.076981,64.499878 
	C54.857288,64.461868 55.987045,64.612785 56.258251,65.176659 
	C57.366280,67.480377 58.211971,69.910271 59.968315,71.828537 
	C60.078003,73.063316 60.187691,74.298096 60.297379,75.532875 
	C61.697250,75.226234 63.097126,74.919594 65.126175,74.475128 
	C64.157768,73.059273 63.705040,72.442245 63.301495,71.794579 
	C62.907848,71.162796 62.564468,70.499695 62.894772,69.087914 
	C64.443977,70.296936 65.993187,71.505966 67.860504,72.831345 
	C70.345329,77.148056 72.512039,81.348412 74.080177,84.388374 
	C72.171043,86.875847 70.596565,88.927277 68.897110,91.294693 
M64.096863,90.825333 
	C64.376724,89.786652 64.656586,88.747971 64.997398,87.483063 
	C63.179916,87.483063 61.789272,87.483063 60.242355,87.483063 
	C59.889294,90.368301 59.498249,92.929741 64.096863,90.825333 
z"/>
<path fill="#E0DFD0" opacity="1.000000" stroke="none" 
	d="
M61.006393,93.011307 
	C62.611073,93.543091 64.215752,94.074867 65.975189,94.957390 
	C66.037910,95.876549 65.945877,96.444962 65.477783,97.437660 
	C64.174652,99.539215 63.247581,101.216492 62.063026,102.918427 
	C61.461021,102.955513 61.116497,102.967941 60.771969,102.980362 
	C60.112926,100.309006 59.453884,97.637657 58.722351,94.573318 
	C58.871025,94.141075 59.092186,94.101814 59.870903,93.925308 
	C60.705231,93.591728 60.897877,93.332817 61.006393,93.011307 
z"/>
<path fill="#E9E1CE" opacity="1.000000" stroke="none" 
	d="
M60.649548,103.429276 
	C61.116497,102.967941 61.461021,102.955513 62.365833,103.200256 
	C63.309109,106.635292 63.692101,109.813148 64.075089,112.991005 
	C64.074020,113.734581 64.072952,114.478149 63.983040,115.585236 
	C62.942871,115.934967 61.991539,115.921196 60.683453,115.888695 
	C60.393513,111.872704 60.460320,107.875443 60.649548,103.429276 
z"/>
<path fill="#646761" opacity="1.000000" stroke="none" 
	d="
M64.369415,112.713272 
	C63.692101,109.813148 63.309109,106.635292 62.623314,103.175598 
	C63.247581,101.216492 64.174652,99.539215 65.426620,97.723709 
	C65.522270,99.152687 65.293045,100.719902 65.097870,102.688171 
	C64.975868,106.204666 64.819801,109.320099 64.369415,112.713272 
z"/>
<path fill="#233A43" opacity="1.000000" stroke="none" 
	d="
M35.030876,78.655876 
	C33.062897,78.771027 31.130533,78.551086 28.996988,78.661316 
	C27.884668,80.440071 26.973528,81.888657 26.024448,83.693466 
	C24.954237,82.825684 23.921967,81.601685 22.622570,80.246353 
	C21.917324,78.985077 21.479200,77.855125 21.025276,76.362854 
	C21.807184,75.751030 22.604891,75.501541 23.880104,75.325790 
	C25.571775,74.932930 26.785938,74.466316 28.204546,74.246422 
	C30.606468,74.324493 32.803947,74.155846 35.274429,74.104843 
	C36.079571,74.481995 36.611710,74.741501 37.235771,75.241684 
	C37.289745,75.649849 37.251797,75.817360 37.213848,75.984863 
	C36.498058,76.763496 35.782272,77.542137 35.030876,78.655876 
z"/>
<path fill="#344A53" opacity="1.000000" stroke="none" 
	d="
M28.000103,73.999695 
	C26.785938,74.466316 25.571775,74.932930 24.173763,75.203339 
	C23.992081,73.970413 23.994247,72.933685 23.992216,71.508591 
	C25.387106,71.095490 26.786196,71.070763 28.567059,71.418106 
	C28.632591,72.526688 28.316347,73.263191 28.000103,73.999695 
z"/>
<path fill="#273C46" opacity="1.000000" stroke="none" 
	d="
M31.105963,84.131363 
	C31.319447,84.090996 31.610619,84.271667 31.879755,84.717056 
	C31.558914,84.851364 31.334227,84.641571 31.105963,84.131363 
z"/>
<path fill="#2B3C41" opacity="1.000000" stroke="none" 
	d="
M51.200310,38.820477 
	C51.201324,38.498390 51.419235,38.062111 51.790485,37.761101 
	C51.861874,38.227188 51.686333,38.497162 51.200310,38.820477 
z"/>
<path fill="#2E424C" opacity="1.000000" stroke="none" 
	d="
M22.886734,54.075493 
	C23.011480,54.306644 22.872362,54.675644 22.429016,55.153168 
	C22.290815,54.912247 22.456842,54.562798 22.886734,54.075493 
z"/>
<path fill="#25343A" opacity="1.000000" stroke="none" 
	d="
M94.944290,58.657509 
	C92.954796,59.004799 90.908745,59.001251 88.428841,58.595280 
	C88.001282,57.409992 88.007584,56.627136 88.013878,55.844276 
	C88.009659,55.601631 88.093407,55.394527 88.404739,55.124722 
	C90.658829,56.119869 92.773285,57.213268 94.944290,58.657509 
z"/>
<path fill="#152A35" opacity="1.000000" stroke="none" 
	d="
M87.548721,55.911270 
	C88.007584,56.627136 88.001282,57.409992 87.990509,58.583435 
	C84.628685,58.982056 81.271339,58.990097 77.273331,58.749401 
	C75.757622,58.659977 74.882553,58.819294 73.639740,58.981194 
	C72.182358,59.318512 71.092735,59.653248 70.003105,59.987988 
	C68.219368,59.951355 66.435631,59.914719 64.235405,59.718086 
	C63.543163,59.374237 63.267410,59.190380 62.991657,59.006523 
	C64.756721,58.050629 66.521782,57.094734 68.627289,56.074432 
	C75.006348,55.999439 81.044960,55.988853 87.548721,55.911270 
z"/>
<path fill="#BFBCB0" opacity="1.000000" stroke="none" 
	d="
M37.462776,76.231476 
	C37.251797,75.817360 37.289745,75.649849 37.465767,75.002174 
	C38.333870,73.898720 39.063904,73.275436 39.971596,72.188934 
	C39.937202,71.471863 39.725151,71.218033 39.513100,70.964203 
	C41.121330,70.951576 42.729565,70.938950 44.633312,70.865204 
	C44.928829,70.804085 44.819130,71.059921 44.532928,71.206299 
	C43.928436,71.673660 43.610153,71.994644 42.984150,72.670609 
	C43.829487,72.987335 44.982536,72.949081 46.127197,72.884079 
	C46.118809,72.857338 46.248196,72.861534 46.248196,72.861534 
	C47.616833,73.458694 48.985470,74.055855 50.918243,74.899155 
	C49.656982,76.519669 48.380035,78.160339 46.994259,79.940834 
	C43.849274,78.767632 40.780491,77.622856 37.462776,76.231476 
z"/>
<path fill="#233A43" opacity="1.000000" stroke="none" 
	d="
M35.910915,79.679962 
	C35.653511,79.934364 35.367516,79.800392 35.091549,79.241516 
	C35.326794,79.075813 35.587044,79.234146 35.910915,79.679962 
z"/>
<path fill="#233A43" opacity="1.000000" stroke="none" 
	d="
M36.931267,80.501312 
	C37.050659,80.661095 36.571239,80.770844 36.571239,80.770844 
	C36.571239,80.770844 36.198524,80.449982 36.158867,80.207275 
	C36.387554,80.021400 36.618443,80.147049 36.931267,80.501312 
z"/>
<path fill="#39464A" opacity="1.000000" stroke="none" 
	d="
M70.045609,60.248787 
	C71.092735,59.653248 72.182358,59.318512 73.645432,59.291733 
	C74.066368,60.008232 74.113869,60.416775 74.161362,60.825317 
	C73.363907,60.883198 72.566452,60.941082 71.369217,61.008705 
	C70.675659,60.848827 70.381882,60.679207 70.045609,60.248787 
z"/>
<path fill="#39464A" opacity="1.000000" stroke="none" 
	d="
M62.762947,59.009956 
	C63.267410,59.190380 63.543163,59.374237 63.912720,59.791496 
	C63.535896,60.326935 63.065269,60.628963 62.281773,60.872223 
	C61.989300,60.412853 62.009693,60.012249 62.053425,59.311829 
	C62.076763,59.012005 62.534233,59.013393 62.762947,59.009956 
z"/>
<path fill="#2B414A" opacity="1.000000" stroke="none" 
	d="
M28.204544,74.246414 
	C28.316347,73.263191 28.632591,72.526688 28.981277,71.490120 
	C30.078066,71.096291 31.142416,71.002525 32.773380,71.203888 
	C33.896000,71.668625 34.452007,71.838234 35.005150,72.337769 
	C35.002003,73.107529 35.001713,73.547363 35.001427,73.987198 
	C32.803947,74.155846 30.606468,74.324493 28.204544,74.246414 
z"/>
<path fill="#233A43" opacity="1.000000" stroke="none" 
	d="
M35.008015,72.007835 
	C34.452007,71.838234 33.896000,71.668625 33.171486,71.254738 
	C34.862568,70.942162 36.722164,70.873856 39.047432,70.884872 
	C39.725151,71.218033 39.937202,71.471863 39.503090,71.969681 
	C37.573952,72.145058 36.290985,72.076447 35.008015,72.007835 
z"/>
<path fill="#2E454E" opacity="1.000000" stroke="none" 
	d="
M79.256546,77.345673 
	C80.400490,77.048096 81.779381,77.002693 83.566338,77.031837 
	C82.480095,77.270203 80.985802,77.434021 79.256546,77.345673 
z"/>
<path fill="#25343A" opacity="1.000000" stroke="none" 
	d="
M74.489014,60.862183 
	C74.113869,60.416775 74.066368,60.008232 74.013184,59.289150 
	C74.882553,58.819294 75.757622,58.659977 76.815247,58.748360 
	C76.975868,59.389297 76.953934,59.782543 76.856201,60.459229 
	C76.125816,60.794800 75.471237,60.846928 74.489014,60.862183 
z"/>
<path fill="#E0DFD0" opacity="1.000000" stroke="none" 
	d="
M63.898438,91.150177 
	C59.498249,92.929741 59.889294,90.368301 60.242355,87.483063 
	C61.789272,87.483063 63.179916,87.483063 64.997398,87.483063 
	C64.656586,88.747971 64.376724,89.786652 63.898438,91.150177 
z"/>
<path fill="#E9E1CE" opacity="1.000000" stroke="none" 
	d="
M60.779228,93.109238 
	C60.897877,93.332817 60.705231,93.591728 60.206245,93.892670 
	C60.076740,93.664429 60.266087,93.401054 60.779228,93.109238 
z"/>
<path fill="#344A53" opacity="1.000000" stroke="none" 
	d="
M35.005150,72.337769 
	C36.290985,72.076447 37.573952,72.145058 39.325432,72.432915 
	C39.063904,73.275436 38.333870,73.898720 37.373840,74.761505 
	C36.611710,74.741501 36.079571,74.481995 35.274429,74.104843 
	C35.001713,73.547363 35.002003,73.107529 35.005150,72.337769 
z"/>
<path fill="#1C3642" opacity="1.000000" stroke="none" 
	d="
M46.135590,72.910828 
	C44.982536,72.949081 43.829487,72.987335 43.678726,72.913475 
	C45.165874,72.837852 45.650730,72.874344 46.135590,72.910828 
z"/>
<path fill="#344A53" opacity="1.000000" stroke="none" 
	d="
M46.127197,72.884087 
	C45.650730,72.874344 45.165874,72.837852 43.986443,72.558495 
	C43.610153,71.994644 43.928436,71.673660 44.460983,71.325455 
	C44.982929,71.512077 45.290615,71.725929 45.923248,72.400658 
	C46.248196,72.861534 46.118809,72.857338 46.127197,72.884087 
z"/>
</svg>